<svg width="131" height="131" viewBox="0 0 131 131" fill="none" xmlns="http://www.w3.org/2000/svg">
<rect width="115.181" height="9.88679" fill="#D9D9D9"/>
<rect x="93.9246" y="89.4755" width="37.0755" height="9.88679" fill="#D9D9D9"/>
<rect x="44.4906" y="15.8189" width="43.0075" height="9.88679" fill="#D9D9D9"/>
<rect x="44.4906" y="105.294" width="43.0075" height="9.88679" fill="#D9D9D9"/>
<rect x="96.8906" y="105.294" width="19.2792" height="9.88679" fill="#D9D9D9"/>
<rect x="17.7963" y="15.8189" width="19.2792" height="9.88679" fill="#D9D9D9"/>
<rect y="31.6377" width="48.4453" height="9.88679" fill="#D9D9D9"/>
<rect x="15.8188" y="121.113" width="115.181" height="9.88679" fill="#D9D9D9"/>
<rect x="89.4756" y="49.9283" width="49.9283" height="9.88679" transform="rotate(-90 89.4756 49.9283)" fill="#D9D9D9"/>
<rect y="131" width="114.687" height="9.88679" transform="rotate(-90 0 131)" fill="#D9D9D9"/>
<rect x="105.294" y="86.5094" width="43.0075" height="9.88679" transform="rotate(-90 105.294 86.5094)" fill="#D9D9D9"/>
<rect x="105.294" y="36.0868" width="19.7736" height="9.88679" transform="rotate(-90 105.294 36.0868)" fill="#D9D9D9"/>
<rect x="15.8188" y="115.181" width="19.7736" height="9.88679" transform="rotate(-90 15.8188 115.181)" fill="#D9D9D9"/>
<rect x="15.8188" y="86.5094" width="43.0075" height="9.88679" transform="rotate(-90 15.8188 86.5094)" fill="#D9D9D9"/>
<rect x="121.113" y="115.181" width="115.181" height="9.88679" transform="rotate(-90 121.113 115.181)" fill="#D9D9D9"/>
<rect x="31.6377" y="131" width="49.434" height="9.88679" transform="rotate(-90 31.6377 131)" fill="#D9D9D9"/>
<rect x="57.3434" y="56.849" width="16.8075" height="16.8075" fill="#D9D9D9"/>
</svg>
